<svg viewBox="0 0 18 10" xmlns="http://www.w3.org/2000/svg">
  <path
    d="M16.6035 0.735483L9.57604 7.65198C9.42271 7.80368 9.21573 7.88876 9.00004 7.88876C8.78436 7.88876 8.57738 7.80368 8.42404 7.65198L1.39654 0.736983C1.24226 0.58537 1.0346 0.500416 0.818293 0.500416C0.601984 0.500416 0.394327 0.58537 0.240044 0.736983C0.16407 0.811049 0.103693 0.899572 0.0624657 0.997338C0.0212402 1.0951 1.90735e-06 1.20013 1.90735e-06 1.30623C1.90735e-06 1.41234 0.0212402 1.51736 0.0624657 1.61513C0.103693 1.71289 0.16407 1.80142 0.240044 1.87548L7.26604 8.79048C7.72883 9.24487 8.35148 9.49945 9.00004 9.49945C9.64861 9.49945 10.2713 9.24487 10.734 8.79048L17.76 1.87548C17.8362 1.80139 17.8968 1.71278 17.9382 1.61487C17.9795 1.51697 18.0009 1.41177 18.0009 1.30548C18.0009 1.1992 17.9795 1.094 17.9382 0.996094C17.8968 0.89819 17.8362 0.809572 17.76 0.735483C17.6058 0.583869 17.3981 0.498915 17.1818 0.498915C16.9655 0.498915 16.7578 0.583869 16.6035 0.735483Z"
  />
</svg>
