<svg viewBox="0 0 24 24" xmlns="http://www.w3.org/2000/svg">
    <path fill-rule="evenodd" clip-rule="evenodd"
          d="M11.5 2.13397C11.652 2.04621 11.8245 2 12 2C12.1755 2 12.348 2.04621 12.5 2.13397L20.294 6.63397C20.446 6.72174 20.5722 6.84797 20.66 6.99999C20.7478 7.152 20.794 7.32444 20.794 7.49997V15.345C20.794 15.8716 20.6554 16.3889 20.3921 16.8449C20.1287 17.301 19.75 17.6797 19.294 17.943L13.5 21.29C13.0439 21.5533 12.5266 21.6919 12 21.6919C11.4734 21.6919 10.9561 21.5533 10.5 21.29L4.70599 17.944C4.24995 17.6807 3.87124 17.302 3.60794 16.8459C3.34463 16.3899 3.20601 15.8726 3.20599 15.346V7.49997C3.206 7.32444 3.25221 7.152 3.33997 6.99999C3.42774 6.84797 3.55398 6.72174 3.70599 6.63397L11.5 2.13397ZM12 5.99997C12.2652 5.99997 12.5196 6.10533 12.7071 6.29287C12.8946 6.4804 13 6.73476 13 6.99997V11.423L16.83 13.634C16.9446 13.6992 17.0453 13.7864 17.1261 13.8906C17.2069 13.9948 17.2662 14.114 17.3008 14.2413C17.3354 14.3686 17.3444 14.5014 17.3274 14.6322C17.3104 14.763 17.2677 14.8891 17.2018 15.0033C17.1358 15.1175 17.0479 15.2176 16.9432 15.2977C16.8384 15.3778 16.7188 15.4364 16.5913 15.4701C16.4638 15.5038 16.3309 15.5119 16.2003 15.4941C16.0696 15.4762 15.9438 15.4327 15.83 15.366L12 13.155L8.16999 15.366C8.05622 15.4327 7.93038 15.4762 7.79972 15.4941C7.66905 15.5119 7.53615 15.5038 7.40865 15.4701C7.28115 15.4364 7.16158 15.3778 7.05681 15.2977C6.95205 15.2176 6.86417 15.1175 6.79823 15.0033C6.73229 14.8891 6.68959 14.763 6.67259 14.6322C6.65559 14.5014 6.66463 14.3686 6.69918 14.2413C6.73374 14.114 6.79312 13.9948 6.87393 13.8906C6.95473 13.7864 7.05535 13.6992 7.16999 13.634L11 11.423V6.99997C11 6.73476 11.1054 6.4804 11.2929 6.29287C11.4804 6.10533 11.7348 5.99997 12 5.99997Z"
    />
</svg>
