<svg viewBox="0 0 25 25" xmlns="http://www.w3.org/2000/svg">
    <path d="M3.125 6.38021C3.125 5.51687 3.46796 4.6889 4.07843 4.07843C4.6889 3.46796 5.51687 3.125 6.38021 3.125H18.6198C19.4831 3.125 20.3111 3.46796 20.9216 4.07843C21.532 4.6889 21.875 5.51687 21.875 6.38021V7.29167H3.125V6.38021ZM3.125 8.59375V18.6198C3.125 19.4831 3.46796 20.3111 4.07843 20.9216C4.6889 21.532 5.51687 21.875 6.38021 21.875H18.6198C19.4831 21.875 20.3111 21.532 20.9216 20.9216C21.532 20.3111 21.875 19.4831 21.875 18.6198V8.59375H3.125ZM9.375 12.2396C9.375 12.5849 9.23782 12.9161 8.99363 13.1603C8.74944 13.4045 8.41825 13.5417 8.07292 13.5417C7.72758 13.5417 7.39639 13.4045 7.1522 13.1603C6.90802 12.9161 6.77083 12.5849 6.77083 12.2396C6.77083 11.8942 6.90802 11.5631 7.1522 11.3189C7.39639 11.0747 7.72758 10.9375 8.07292 10.9375C8.41825 10.9375 8.74944 11.0747 8.99363 11.3189C9.23782 11.5631 9.375 11.8942 9.375 12.2396ZM12.5 13.5417C12.1547 13.5417 11.8235 13.4045 11.5793 13.1603C11.3351 12.9161 11.1979 12.5849 11.1979 12.2396C11.1979 11.8942 11.3351 11.5631 11.5793 11.3189C11.8235 11.0747 12.1547 10.9375 12.5 10.9375C12.8453 10.9375 13.1765 11.0747 13.4207 11.3189C13.6649 11.5631 13.8021 11.8942 13.8021 12.2396C13.8021 12.5849 13.6649 12.9161 13.4207 13.1603C13.1765 13.4045 12.8453 13.5417 12.5 13.5417ZM18.2292 12.2396C18.2292 12.5849 18.092 12.9161 17.8478 13.1603C17.6036 13.4045 17.2724 13.5417 16.9271 13.5417C16.5817 13.5417 16.2506 13.4045 16.0064 13.1603C15.7622 12.9161 15.625 12.5849 15.625 12.2396C15.625 11.8942 15.7622 11.5631 16.0064 11.3189C16.2506 11.0747 16.5817 10.9375 16.9271 10.9375C17.2724 10.9375 17.6036 11.0747 17.8478 11.3189C18.092 11.5631 18.2292 11.8942 18.2292 12.2396ZM8.07292 17.7083C7.72758 17.7083 7.39639 17.5712 7.1522 17.327C6.90802 17.0828 6.77083 16.7516 6.77083 16.4062C6.77083 16.0609 6.90802 15.7297 7.1522 15.4855C7.39639 15.2413 7.72758 15.1042 8.07292 15.1042C8.41825 15.1042 8.74944 15.2413 8.99363 15.4855C9.23782 15.7297 9.375 16.0609 9.375 16.4062C9.375 16.7516 9.23782 17.0828 8.99363 17.327C8.74944 17.5712 8.41825 17.7083 8.07292 17.7083ZM13.8021 16.4062C13.8021 16.7516 13.6649 17.0828 13.4207 17.327C13.1765 17.5712 12.8453 17.7083 12.5 17.7083C12.1547 17.7083 11.8235 17.5712 11.5793 17.327C11.3351 17.0828 11.1979 16.7516 11.1979 16.4062C11.1979 16.0609 11.3351 15.7297 11.5793 15.4855C11.8235 15.2413 12.1547 15.1042 12.5 15.1042C12.8453 15.1042 13.1765 15.2413 13.4207 15.4855C13.6649 15.7297 13.8021 16.0609 13.8021 16.4062Z"
    />
</svg>
