<svg viewBox="0 0 21 21" xmlns="http://www.w3.org/2000/svg">
    <path d="M12.2387 10.1718C12.271 10.1719 12.3026 10.1623 12.3295 10.1445C12.3564 10.1266 12.3775 10.1012 12.39 10.0714C12.4026 10.0416 12.406 10.0088 12.3999 9.97701C12.3939 9.94526 12.3786 9.91601 12.356 9.89293L9.14033 6.62316C9.11748 6.59996 9.08824 6.58408 9.05633 6.57755C9.02443 6.57102 8.9913 6.57413 8.96117 6.58649C8.93104 6.59885 8.90527 6.6199 8.88714 6.64696C8.86901 6.67401 8.85935 6.70585 8.85938 6.73842V9.67965C8.85938 9.81018 8.91123 9.93537 9.00353 10.0277C9.09584 10.12 9.22103 10.1718 9.35156 10.1718H12.2387Z"
    />
    <path d="M8.08008 10.9511C7.91161 10.7849 7.77775 10.587 7.68623 10.3688C7.59471 10.1505 7.54735 9.9163 7.54688 9.67965V5.90621H4.59375C3.89819 5.90827 3.2317 6.18549 2.73987 6.67733C2.24803 7.16916 1.97081 7.83565 1.96875 8.53121V17.7187C1.96875 18.4149 2.24531 19.0826 2.73759 19.5749C3.22988 20.0672 3.89756 20.3437 4.59375 20.3437H10.5C11.1962 20.3437 11.8639 20.0672 12.3562 19.5749C12.8484 19.0826 13.125 18.4149 13.125 17.7187V11.4843H9.35156C9.11489 11.484 8.88063 11.4367 8.66237 11.3452C8.44411 11.2537 8.24619 11.1197 8.08008 10.9511ZM15.2578 4.92184H18.1449C18.1772 4.92186 18.2088 4.91234 18.2358 4.89447C18.2627 4.8766 18.2837 4.85117 18.2963 4.82138C18.3088 4.79159 18.3123 4.75876 18.3062 4.72701C18.3001 4.69526 18.2848 4.66601 18.2622 4.64293L15.0466 1.37316C15.0237 1.34996 14.9945 1.33408 14.9626 1.32755C14.9307 1.32102 14.8976 1.32413 14.8674 1.33649C14.8373 1.34885 14.8115 1.3699 14.7934 1.39696C14.7753 1.42401 14.7656 1.45585 14.7656 1.48842V4.42965C14.7656 4.56018 14.8175 4.68537 14.9098 4.77768C15.0021 4.86998 15.1273 4.92184 15.2578 4.92184Z"
    />
    <path d="M15.2578 6.23438C14.7803 6.23073 14.3234 6.03942 13.9857 5.70176C13.6481 5.36411 13.4568 4.90719 13.4531 4.42969V0.65625H9.02344C8.37099 0.65701 7.74548 0.91653 7.28413 1.37788C6.82278 1.83923 6.56326 2.46474 6.5625 3.11719V4.59375H8.29008C8.51059 4.59461 8.72876 4.63904 8.93204 4.72449C9.13532 4.80995 9.31971 4.93473 9.47461 5.09168L13.9519 9.64441C14.2643 9.96132 14.4387 10.3889 14.4371 10.8339V16.4062H16.613C17.9464 16.4062 19.0308 15.3021 19.0308 13.9453V6.23438H15.2578Z"
    />
</svg>
