<svg viewBox="0 0 16 20" fill="none" xmlns="http://www.w3.org/2000/svg">
  <path
    d="M11.5665 0.666667L11.9013 0.112L11.749 0H11.5665V0.666667ZM15.1921 3.33333H15.7964V2.976L15.5269 2.77867L15.1921 3.33333ZM13.9836 16H4.31527V17.3333H13.9836V16ZM3.711 15.3333V2H2.50247V15.3333H3.711ZM4.31527 1.33333H11.5665V0H4.31527V1.33333ZM14.5879 3.33333V15.3333H15.7964V3.33333H14.5879ZM11.2317 1.22133L14.8574 3.888L15.5269 2.77867L11.9013 0.112L11.2317 1.22133ZM4.31527 16C4.15501 16 4.00131 15.9298 3.88799 15.8047C3.77467 15.6797 3.711 15.5101 3.711 15.3333H2.50247C2.50247 15.8638 2.69346 16.3725 3.03342 16.7475C3.37339 17.1226 3.83449 17.3333 4.31527 17.3333V16ZM13.9836 17.3333C14.4644 17.3333 14.9255 17.1226 15.2654 16.7475C15.6054 16.3725 15.7964 15.8638 15.7964 15.3333H14.5879C14.5879 15.5101 14.5242 15.6797 14.4109 15.8047C14.2975 15.9298 14.1438 16 13.9836 16V17.3333ZM3.711 2C3.711 1.82319 3.77467 1.65362 3.88799 1.5286C4.00131 1.40357 4.15501 1.33333 4.31527 1.33333V0C3.83449 0 3.37339 0.210714 3.03342 0.585786C2.69346 0.960859 2.50247 1.46957 2.50247 2H3.711ZM0.0853882 4.66667V18H1.29393V4.66667H0.0853882ZM1.8982 20H11.5665V18.6667H1.8982V20ZM1.8982 4H3.10673V2.66667H1.8982V4ZM13.3793 18V16.6667H12.1708V18H13.3793ZM11.5665 20C12.0473 20 12.5084 19.7893 12.8484 19.4142C13.1883 19.0391 13.3793 18.5304 13.3793 18H12.1708C12.1708 18.1768 12.1071 18.3464 11.9938 18.4714C11.8805 18.5964 11.7268 18.6667 11.5665 18.6667V20ZM0.0853882 18C0.0853882 18.5304 0.27638 19.0391 0.616347 19.4142C0.956315 19.7893 1.41741 20 1.8982 20V18.6667C1.73793 18.6667 1.58424 18.5964 1.47091 18.4714C1.35759 18.3464 1.29393 18.1768 1.29393 18H0.0853882ZM1.29393 4.66667C1.29393 4.48986 1.35759 4.32029 1.47091 4.19526C1.58424 4.07024 1.73793 4 1.8982 4V2.66667C1.41741 2.66667 0.956315 2.87738 0.616347 3.25245C0.27638 3.62753 0.0853882 4.13623 0.0853882 4.66667H1.29393Z"
    fill="#192A3E" />
</svg>
