<svg viewBox="1 0 21 20" fill="none" xmlns="http://www.w3.org/2000/svg">
  <path
    d="M11.2734 13.125V15.75M19.9372 10.6785V12.0094C19.9372 15.4219 19.9372 17.129 18.9218 18.1895C17.9064 19.25 16.2733 19.25 13.0062 19.25H9.54065C6.27354 19.25 4.63955 19.25 3.62502 18.1895C2.61049 17.129 2.60962 15.4228 2.60962 12.0094V10.6785C2.60962 8.67563 2.60962 7.67462 3.06014 6.84512C3.50892 6.01475 4.33111 5.50025 5.97464 4.4695L7.70739 3.38363C9.44449 2.29425 10.3135 1.75 11.2734 1.75C12.2334 1.75 13.1015 2.29425 14.8394 3.38363L16.5722 4.4695C18.2157 5.50025 19.0379 6.01475 19.4876 6.84512"
    stroke="#000" stroke-width="1.5" stroke-linecap="round" />
</svg>
