<svg viewBox="0 0 21 21" xmlns="http://www.w3.org/2000/svg">
    <path fill-rule="evenodd" clip-rule="evenodd"
          d="M9.61623 0.866227C9.85064 0.631888 10.1685 0.500244 10.5 0.500244C10.8314 0.500244 11.1493 0.631888 11.3837 0.866227L20.1337 9.61623C20.3085 9.79104 20.4275 10.0137 20.4757 10.2562C20.5239 10.4986 20.4992 10.7499 20.4046 10.9783C20.31 11.2067 20.1498 11.4019 19.9443 11.5392C19.7388 11.6766 19.4972 11.7499 19.25 11.75H18V19.25C18 19.5815 17.8683 19.8994 17.6339 20.1339C17.3994 20.3683 17.0815 20.5 16.75 20.5H14.25C13.9185 20.5 13.6005 20.3683 13.3661 20.1339C13.1317 19.8994 13 19.5815 13 19.25V15.5C13 15.1685 12.8683 14.8505 12.6339 14.6161C12.3994 14.3817 12.0815 14.25 11.75 14.25H9.24998C8.91846 14.25 8.60052 14.3817 8.36609 14.6161C8.13167 14.8505 7.99998 15.1685 7.99998 15.5V19.25C7.99998 19.5815 7.86828 19.8994 7.63386 20.1339C7.39944 20.3683 7.0815 20.5 6.74998 20.5H4.24998C3.91846 20.5 3.60051 20.3683 3.36609 20.1339C3.13167 19.8994 2.99998 19.5815 2.99998 19.25V11.75H1.74998C1.50279 11.7499 1.26117 11.6766 1.05565 11.5392C0.850142 11.4019 0.689968 11.2067 0.59538 10.9783C0.500793 10.7499 0.476039 10.4986 0.524248 10.2562C0.572458 10.0137 0.691466 9.79104 0.866228 9.61623L9.61623 0.866227Z"
    />
</svg>
