<svg viewBox="0 0 20 20" xmlns="http://www.w3.org/2000/svg">
    <path d="M5.24702 20H3.79602C3.05582 20.0002 2.33168 19.7841 1.71269 19.3783C1.09369 18.9724 0.606825 18.3944 0.311979 17.7155C0.0171329 17.0365 -0.0728374 16.2862 0.0531348 15.5568C0.179107 14.8274 0.515528 14.1507 1.02102 13.61L2.15602 12.393C2.69625 11.8133 2.99053 11.0466 2.97692 10.2543C2.9633 9.46196 2.64285 8.70582 2.08302 8.145L0.969017 7.03C0.836537 6.88783 0.764414 6.69978 0.767842 6.50548C0.77127 6.31118 0.849982 6.12579 0.987395 5.98838C1.12481 5.85097 1.31019 5.77225 1.50449 5.76883C1.6988 5.7654 1.88684 5.83752 2.02902 5.97L3.14302 7.084C3.97794 7.91965 4.45599 9.0467 4.47651 10.2278C4.49703 11.4089 4.05841 12.5519 3.25302 13.416L2.11702 14.633C1.81209 14.9606 1.60937 15.3701 1.53371 15.8112C1.45806 16.2524 1.51275 16.706 1.69109 17.1165C1.86944 17.527 2.16367 17.8765 2.53774 18.1223C2.91181 18.368 3.34945 18.4993 3.79702 18.5H4.47402C4.47102 18.215 4.47302 17.866 4.48602 17.467C4.52202 16.384 4.64302 14.925 4.98602 13.455C5.32602 11.993 5.90102 10.459 6.88502 9.278C7.75702 8.231 8.94002 7.477 10.495 7.293V3.15C10.495 2.31526 10.8263 1.51465 11.4162 0.924027C12.0061 0.333402 12.8063 0.00105999 13.641 0C14.387 0 14.991 0.604 14.991 1.35V2H16.627C17.577 2 18.461 2.492 18.962 3.3L19.582 4.3C20.674 6.063 19.498 8.32 17.489 8.49V17.75C17.489 18.3462 17.2524 18.9181 16.8311 19.3399C16.4098 19.7618 15.8382 19.9992 15.242 20H14.492V17.75C14.492 16.7558 14.0972 15.8023 13.3944 15.0991C12.6915 14.3959 11.7382 14.0005 10.744 14H9.49402C9.2951 14 9.10434 14.079 8.96369 14.2197C8.82303 14.3603 8.74402 14.5511 8.74402 14.75C8.74402 14.9489 8.82303 15.1397 8.96369 15.2803C9.10434 15.421 9.2951 15.5 9.49402 15.5H10.744C11.3406 15.5003 11.9126 15.7374 12.3344 16.1594C12.7561 16.5813 12.993 17.1534 12.993 17.75V20H5.24702Z"
    />
</svg>
