<svg viewBox="0 0 15 15" xmlns="http://www.w3.org/2000/svg">
  <path
    d="M3.49591 1.647V2.52935H1.98331C1.14822 2.52935 0.470703 3.12219 0.470703 3.85288V5.17641H14.5884V3.85288C14.5884 3.12219 13.9108 2.52935 13.0757 2.52935H11.5631V1.647C11.5631 1.15895 11.1125 0.764648 10.5547 0.764648C9.99696 0.764648 9.54633 1.15895 9.54633 1.647V2.52935H5.51272V1.647C5.51272 1.15895 5.06209 0.764648 4.50432 0.764648C3.94654 0.764648 3.49591 1.15895 3.49591 1.647ZM14.5884 6.05877H0.470703V13.5588C0.470703 14.2895 1.14822 14.8823 1.98331 14.8823H13.0757C13.9108 14.8823 14.5884 14.2895 14.5884 13.5588V6.05877Z"
  />
</svg>
