<svg viewBox="0 0 19 19" fill="none" xmlns="http://www.w3.org/2000/svg">
  <path
    d="M9.5 12.1249C10.9497 12.1249 12.125 10.9497 12.125 9.49994C12.125 8.05019 10.9497 6.87494 9.5 6.87494C8.05025 6.87494 6.875 8.05019 6.875 9.49994C6.875 10.9497 8.05025 12.1249 9.5 12.1249Z"
    stroke="#5951F6" stroke-width="1.3125" />
  <path
    d="M2.2034 8.31C2.61728 8.569 2.88328 9.01175 2.88328 9.5C2.88328 9.98825 2.61728 10.431 2.2034 10.69C1.92253 10.8676 1.74053 11.0085 1.6119 11.1765C1.47198 11.3589 1.36936 11.567 1.30991 11.7891C1.25046 12.0111 1.23533 12.2427 1.2654 12.4706C1.3109 12.8154 1.51478 13.1689 1.92165 13.875C2.33028 14.5811 2.53415 14.9337 2.80978 15.1464C2.99216 15.2863 3.20032 15.3889 3.42237 15.4484C3.64442 15.5078 3.87601 15.5229 4.1039 15.4929C4.3139 15.4649 4.52653 15.3791 4.82053 15.2234C5.03093 15.1082 5.26715 15.0485 5.507 15.0497C5.74684 15.0509 5.98244 15.1131 6.19165 15.2304C6.61428 15.4754 6.8654 15.926 6.8829 16.4143C6.89515 16.7468 6.92665 16.9742 7.00803 17.1694C7.09598 17.3818 7.22494 17.5749 7.38754 17.7375C7.55014 17.9001 7.74319 18.0291 7.95565 18.117C8.27678 18.25 8.68453 18.25 9.50003 18.25C10.3155 18.25 10.7233 18.25 11.0444 18.117C11.2569 18.0291 11.4499 17.9001 11.6125 17.7375C11.7751 17.5749 11.9041 17.3818 11.992 17.1694C12.0725 16.9742 12.1049 16.7468 12.1172 16.4143C12.1347 15.926 12.3858 15.4745 12.8084 15.2304C13.0176 15.1131 13.2532 15.0509 13.4931 15.0497C13.7329 15.0485 13.9691 15.1082 14.1795 15.2234C14.4735 15.3791 14.687 15.4649 14.897 15.4929C15.357 15.5534 15.8222 15.4287 16.1903 15.1464C16.4659 14.9346 16.6698 14.5811 17.0775 13.875C17.2595 13.56 17.4004 13.3159 17.5054 13.1111M16.7967 10.6909C16.5918 10.5664 16.4219 10.3918 16.303 10.1837C16.1841 9.97554 16.12 9.74058 16.1168 9.50088C16.1168 9.01175 16.3828 8.569 16.7967 8.30912C17.0775 8.13237 17.2587 7.9915 17.3882 7.8235C17.5281 7.64112 17.6307 7.43296 17.6901 7.21091C17.7496 6.98886 17.7647 6.75727 17.7347 6.52937C17.6892 6.18462 17.4853 5.83112 17.0784 5.125C16.6698 4.41888 16.4659 4.06625 16.1903 3.85362C16.0079 3.7137 15.7997 3.61109 15.5777 3.55163C15.3556 3.49218 15.124 3.47706 14.8962 3.50713C14.6862 3.53513 14.4735 3.62088 14.1787 3.77663C13.9684 3.89161 13.7323 3.9513 13.4926 3.95007C13.2529 3.94885 13.0175 3.88676 12.8084 3.76963C12.6023 3.64704 12.4307 3.47409 12.3098 3.267C12.1889 3.05991 12.1226 2.82549 12.1172 2.58575C12.1049 2.25325 12.0734 2.02575 11.992 1.83062C11.9041 1.61816 11.7751 1.42511 11.6125 1.26251C11.4499 1.09991 11.2569 0.970949 11.0444 0.883C10.7233 0.75 10.3155 0.75 9.50003 0.75C8.68453 0.75 8.27678 0.75 7.95565 0.883C7.74319 0.970949 7.55014 1.09991 7.38754 1.26251C7.22494 1.42511 7.09598 1.61816 7.00803 1.83062C6.92753 2.02575 6.89515 2.25325 6.8829 2.58575C6.87745 2.82549 6.81115 3.05991 6.69024 3.267C6.56932 3.47409 6.39776 3.64704 6.19165 3.76963C5.98244 3.88691 5.74684 3.94909 5.507 3.95031C5.26715 3.95154 5.03093 3.89177 4.82053 3.77663C4.52653 3.62088 4.31303 3.53513 4.10303 3.50713C3.64306 3.44664 3.17789 3.57127 2.80978 3.85362C2.53503 4.06625 2.33028 4.41888 1.92253 5.125C1.74053 5.44 1.59965 5.68413 1.49465 5.88888"
    stroke="#5951F6" stroke-width="1.3125" stroke-linecap="round" />
</svg>
