<svg viewBox="0 0 15 15" fill="none" xmlns="http://www.w3.org/2000/svg">
  <circle cx="7.5" cy="7.5" r="7.5" fill="#C5FC47" />
  <path
    d="M11.9477 4.78485C12.0014 4.83844 12.044 4.9021 12.0731 4.9722C12.1022 5.04229 12.1172 5.11743 12.1172 5.19331C12.1172 5.2692 12.1022 5.34434 12.0731 5.41443C12.044 5.48452 12.0014 5.54818 11.9477 5.60177L6.75535 10.7941C6.70176 10.8478 6.6381 10.8904 6.56801 10.9195C6.49792 10.9486 6.42278 10.9636 6.34689 10.9636C6.27101 10.9636 6.19587 10.9486 6.12578 10.9195C6.05569 10.8904 5.99202 10.8478 5.93843 10.7941L3.63074 8.48639C3.52241 8.37806 3.46155 8.23113 3.46155 8.07793C3.46155 7.92472 3.52241 7.7778 3.63074 7.66946C3.73907 7.56113 3.886 7.50027 4.0392 7.50027C4.1924 7.50027 4.33933 7.56113 4.44766 7.66946L6.34689 9.56985L11.1307 4.78485C11.1843 4.73112 11.248 4.6885 11.3181 4.65941C11.3882 4.63033 11.4633 4.61536 11.5392 4.61536C11.6151 4.61536 11.6902 4.63033 11.7603 4.65941C11.8304 4.6885 11.8941 4.73112 11.9477 4.78485Z"
    fill="#192A3E" />
</svg>
